<svg height="300" width="250"><g transform="translate(10,10)"><g><path style="stroke-width: 95.5486;" d="M5,53.83109228937518C115,53.83109228937518 115,47.77431920476504 225,47.77431920476504" class="link"><title>Syrian Arab Rep. → Turkey
1,557,899 Widgets</title></path><path style="stroke-width: 70.3778;" d="M5,136.79430669309244C115,136.79430669309244 115,135.7375336084823 225,135.7375336084823" class="link"><title>Syrian Arab Rep. → Lebanon
1,147,494 Widgets</title></path><path style="stroke-width: 35.8977;" d="M5,189.93205488432844C115,189.93205488432844 115,193.8752817997183 225,193.8752817997183" class="link"><title>Syrian Arab Rep. → Jordan
585,304 Widgets</title></path><path style="stroke-width: 14.3636;" d="M5,215.06273061382367C115,215.06273061382367 115,224.00595752921353 225,224.00595752921353" class="link"><title>Syrian Arab Rep. → Iraq
234,196 Widgets</title></path><path style="stroke-width: 8.48715;" d="M5,226.48812630786657C115,226.48812630786657 115,240.43135322325642 225,240.43135322325642" class="link"><title>Syrian Arab Rep. → Egypt
138,381 Widgets</title></path><path style="stroke-width: 3.64445;" d="M5,232.55392624846615C115,232.55392624846615 115,251.497153163856 225,251.497153163856" class="link"><title>Syrian Arab Rep. → Other
59,422 Widgets</title></path><path style="stroke-width: 2.51423;" d="M5,235.63326967012935C115,235.63326967012935 115,259.5764965855192 225,259.5764965855192" class="link"><title>Syrian Arab Rep. → Germany
40,994 Widgets</title></path><path style="stroke-width: 2.10276;" d="M5,237.94176526285742C115,237.94176526285742 115,266.8849921782473 225,266.8849921782473" class="link"><title>Syrian Arab Rep. → Sweden
34,285 Widgets</title></path><path style="stroke-width: 1.14402;" d="M5,239.56515478301364C115,239.56515478301364 115,273.50838169840347 225,273.50838169840347" class="link"><title>Syrian Arab Rep. → Libya
18,653 Widgets</title></path><path style="stroke-width: 1;" d="M5,240.59696911647347C115,240.59696911647347 115,279.5401960318633 225,279.5401960318633" class="link"><title>Syrian Arab Rep. → Armenia
14,994 Widgets</title></path></g><g><g transform="translate(0,6.0567730846102)" class="node"><rect style="fill: rgb(31, 119, 180); stroke: rgb(15, 58, 88);" width="5" height="235"><title>Syrian Arab Rep.
3,831,622 Widgets</title></rect><text text-anchor="start" dy=".35em" y="117.5" x="11">Syrian Arab Rep.</text></g><g transform="translate(225,6.394884621840902e-14)" class="node"><rect style="fill: rgb(174, 199, 232); stroke: rgb(85, 97, 113);" width="5" height="95.54863840952996"><title>Turkey
1,557,899 Widgets</title></rect><text text-anchor="end" dy=".35em" y="47.77431920476498" x="-6">Turkey</text></g><g transform="translate(225,100.54863840953001)" class="node"><rect style="fill: rgb(255, 127, 14); stroke: rgb(124, 62, 6);" width="5" height="70.37779039790459"><title>Lebanon
1,147,494 Widgets</title></rect><text text-anchor="end" dy=".35em" y="35.188895198952295" x="-6">Lebanon</text></g><g transform="translate(225,175.9264288074346)" class="node"><rect style="fill: rgb(255, 187, 120); stroke: rgb(124, 91, 58);" width="5" height="35.897705984567374"><title>Jordan
585,304 Widgets</title></rect><text text-anchor="end" dy=".35em" y="17.948852992283687" x="-6">Jordan</text></g><g transform="translate(225,216.82413479200198)" class="node"><rect style="fill: rgb(44, 160, 44); stroke: rgb(21, 78, 21);" width="5" height="14.363645474423103"><title>Iraq
234,196 Widgets</title></rect><text text-anchor="end" dy=".35em" y="7.181822737211552" x="-6">Iraq</text></g><g transform="translate(225,236.18778026642508)" class="node"><rect style="fill: rgb(152, 223, 138); stroke: rgb(74, 109, 67);" width="5" height="8.487145913662673"><title>Egypt
138,381 Widgets</title></rect><text text-anchor="end" dy=".35em" y="4.243572956831336" x="-6">Egypt</text></g><g transform="translate(225,258.3193801476242)" class="node"><rect style="fill: rgb(214, 39, 40); stroke: rgb(104, 19, 19);" width="5" height="2.5142328757899395"><title>Germany
40,994 Widgets</title></rect><text text-anchor="end" dy=".35em" y="1.2571164378949697" x="-6">Germany</text></g><g transform="translate(225,265.83361302341416)" class="node"><rect style="fill: rgb(255, 152, 150); stroke: rgb(124, 74, 73);" width="5" height="2.1027583096662457"><title>Sweden
34,285 Widgets</title></rect><text text-anchor="end" dy=".35em" y="1.0513791548331228" x="-6">Sweden</text></g><g transform="translate(225,272.9363713330804)" class="node"><rect style="fill: rgb(148, 103, 189); stroke: rgb(72, 50, 92);" width="5" height="1.1440207306461858"><title>Libya
18,653 Widgets</title></rect><text text-anchor="end" dy=".35em" y="0.5720103653230929" x="-6">Libya</text></g><g transform="translate(225,279.08039206372655)" class="node"><rect style="fill: rgb(197, 176, 213); stroke: rgb(96, 86, 104);" width="5" height="0.9196079362734633"><title>Armenia
14,994 Widgets</title></rect><text text-anchor="end" dy=".35em" y="0.45980396813673163" x="-6">Armenia</text></g><g transform="translate(225,249.67492618008777)" class="node"><rect style="fill: rgb(140, 86, 75); stroke: rgb(68, 42, 36);" width="5" height="3.644453967536464"><title>Other
59,422 Widgets</title></rect><text text-anchor="end" dy=".35em" y="1.822226983768232" x="-6">Other</text></g></g></g></svg>